<?xml version="1.0" encoding="utf-8"?>
<!-- Generator: Adobe Illustrator 16.0.0, SVG Export Plug-In . SVG Version: 6.00 Build 0)  -->
<!DOCTYPE svg PUBLIC "-//W3C//DTD SVG 1.1//EN" "http://www.w3.org/Graphics/SVG/1.1/DTD/svg11.dtd">
<svg version="1.1" xmlns="http://www.w3.org/2000/svg" xmlns:xlink="http://www.w3.org/1999/xlink" x="0px" y="0px"
	 width="335.986px" height="235.19px" viewBox="0 0 335.986 235.19" enable-background="new 0 0 335.986 235.19"
	 xml:space="preserve">
<g id="bg">
	<g>
		<g>
			<rect x="0" y="0" fill="#F5F5F5" width="335.987" height="235.189"/>
		</g>
	</g>
	<path fill="#DCDBDD" d="M311.5,198c0,9.043-7.332,16.375-16.379,16.375l0,0c-9.045,0-16.379-7.332-16.379-16.375v-18.406
		c0-9.047,7.334-16.379,16.379-16.379l0,0c9.047,0,16.379,7.332,16.379,16.379V198z"/>
	<path fill="#FFFFFF" d="M308.961,181.018c-0.383-7.32-6.424-13.141-13.84-13.141s-13.455,5.82-13.84,13.141H308.961z"/>
	<path fill="#4E4E4E" d="M297.646,184.715c0,1.174-1.131,2.123-2.525,2.123l0,0c-1.393,0-2.523-0.949-2.523-2.123v-8.898
		c0-1.172,1.131-2.123,2.523-2.123l0,0c1.395,0,2.525,0.951,2.525,2.123V184.715z"/>
	<g>
		<circle fill="#E0E1E3" cx="48.786" cy="43.064" r="28.447"/>
	</g>
	<g>
		<circle fill="#FFFFFF" cx="48.751" cy="43.166" r="21.171"/>
	</g>
	<g>
		<circle fill="#4E4E4E" cx="48.75" cy="43.165" r="17.465"/>
	</g>
	<g>
		<circle fill="#868686" cx="41.166" cy="39.643" r="3.798"/>
	</g>
	<g>
		<circle fill="#868686" cx="50.856" cy="37.158" r="2.359"/>
	</g>
	<g>
		<path fill="#FFFFFF" d="M66.806,23.817c0.874,0.833,1.108,2.005,0.523,2.613l-2.96,3.095c-0.584,0.61-1.762,0.427-2.636-0.41l0,0
			c-0.873-0.834-1.106-2.005-0.522-2.616l2.958-3.092C64.753,22.798,65.933,22.982,66.806,23.817L66.806,23.817z"/>
	</g>
	<g>
		<path fill="#D1D3D4" d="M191.206,169.562c0,0-1.83-1.898-4.133-3.961c-2.301-2.061-1.978-3.576-1.978-3.576l-0.62-8.219h-14.167
			H169.6h-14.168l-0.618,8.219c0,0,0.325,1.516-1.979,3.576c-2.302,2.062-4.13,3.961-4.13,3.961s-0.267,0.461-0.267,1.111
			s0.384,0.68,1.977,0.68c1.409,0,15.817,0,19.186,0c0.449,0,0.709,0,0.709,0c3.368,0,17.776,0,19.185,0
			c1.594,0,1.977-0.029,1.977-0.68S191.206,169.562,191.206,169.562z"/>
		<path fill="#CECDCF" d="M191.206,169.562c0,0-1.83-1.898-4.133-3.961c-2.301-2.061-1.978-3.576-1.978-3.576l-0.62-8.219h-14.167
			H169.6h-14.168l-0.618,8.219c0,0,0.325,1.516-1.979,3.576c-2.302,2.062-4.13,3.961-4.13,3.961s-0.267,0.461-0.267,1.111
			s0.384,0.68,1.977,0.68c1.409,0,15.817,0,19.186,0c0.449,0,0.709,0,0.709,0c3.368,0,17.776,0,19.185,0
			c1.594,0,1.977-0.029,1.977-0.68S191.206,169.562,191.206,169.562z"/>
	</g>
	<path fill="#B3B3B3" d="M230.788,59.836H109.119c-5.023,0-9.096,4.073-9.096,9.094v80.339c0,5.023,4.073,9.094,9.096,9.094h121.669
		c5.023,0,9.098-4.07,9.098-9.094V68.93C239.886,63.91,235.812,59.836,230.788,59.836L230.788,59.836z"/>
	<path fill="#DCDBDD" d="M230.788,59.836H109.119c-5.023,0-9.096,4.073-9.096,9.094v80.339c0,5.023,4.073,9.094,9.096,9.094h121.669
		c5.023,0,9.098-4.07,9.098-9.094V68.93C239.886,63.91,235.812,59.836,230.788,59.836z"/>
	<path d="M100.023,68.93v73.046h139.863V68.93c0-0.564-0.056-1.116-0.153-1.654H100.176
		C100.077,67.814,100.023,68.366,100.023,68.93z"/>
	<path fill="#4E4E4E" d="M100.023,68.93v73.046h139.863V68.93c0-0.564-0.056-1.116-0.153-1.654H100.176
		C100.077,67.814,100.023,68.366,100.023,68.93z"/>
	<path opacity="0.2" fill="#FFFFFF" d="M104.873,73.371v63.959h130.163V73.371c0-0.493-0.052-0.978-0.143-1.447H105.015
		C104.923,72.393,104.873,72.877,104.873,73.371z"/>
	<rect x="39.703" y="132.24" opacity="0.1" fill="#1D1D1B" width="67.409" height="86.209"/>
	<rect x="47.041" y="125.695" fill="#FFFFFF" width="67.409" height="86.209"/>
	<rect x="47.041" y="125.695" fill="#FF643A" width="67.409" height="10.232"/>
	<circle fill="#ADFDF4" cx="56.431" cy="130.57" r="2.329"/>
	<circle fill="#ADFDF4" cx="64.815" cy="130.57" r="2.328"/>
	<circle fill="#ADFDF4" cx="73.199" cy="130.57" r="2.328"/>
	<circle fill="#ADFDF4" cx="105.395" cy="130.57" r="2.328"/>
	<rect x="135.24" y="189.803" opacity="0.1" fill="#1D1D1B" width="117.411" height="30.203"/>
	<rect x="141.381" y="182.217" fill="#FFFFFF" width="117.412" height="30.203"/>
	<rect x="141.381" y="182.217" fill="#FF643A" width="117.412" height="10.232"/>
	<circle fill="#ADFDF4" cx="150.771" cy="187.092" r="2.329"/>
	<circle fill="#ADFDF4" cx="159.155" cy="187.092" r="2.328"/>
	<circle fill="#ADFDF4" cx="167.539" cy="187.092" r="2.328"/>
	<circle fill="#ADFDF4" cx="249.737" cy="187.092" r="2.328"/>
	<rect x="63.276" y="184.082" opacity="0.3" fill="#FF643A" width="32.127" height="4.121"/>
	<rect x="63.276" y="191.406" opacity="0.3" fill="#FF643A" width="26.954" height="4.121"/>
	<rect x="216.646" y="200.131" opacity="0.3" fill="#FF643A" width="30.764" height="4.121"/>
	<rect x="163.472" y="200.131" opacity="0.3" fill="#FF643A" width="27.824" height="4.121"/>
	<rect x="150.197" y="200.131" fill="#4E4E4E" width="8.081" height="4.121"/>
	<rect x="195.458" y="200.131" fill="#4E4E4E" width="13.67" height="4.121"/>
	<rect x="62.999" y="199.525" fill="#4E4E4E" width="34.225" height="4.666"/>
	<polygon fill="#DCDBDD" points="65.775,152.727 80.97,143.953 96.165,152.727 96.165,170.271 80.97,179.045 65.775,170.271 	"/>
	<polygon fill="#4E4E4E" points="65.775,152.727 80.97,161.697 80.97,179.045 65.775,170.271 	"/>
	<polygon fill="#6F6F6E" points="96.165,152.727 80.97,161.697 80.97,179.045 96.165,170.271 	"/>
	<path opacity="0.1" fill="#1D1D1B" d="M260.522,110.141h-53.765c-2.122,0-3.841,1.72-3.841,3.843v15.36v38.402
		c0,2.123,1.719,3.84,3.841,3.84h53.765c2.122,0,3.842-1.717,3.842-3.84v-38.402v-15.36
		C264.364,111.861,262.645,110.141,260.522,110.141z"/>
	<rect x="211.854" y="113.077" fill-rule="evenodd" clip-rule="evenodd" fill="#FFFFFF" width="54.914" height="53.763"/>
	<g id="Base_2_">
		<g>
			<path fill="#C6C6C5" d="M209.163,124.598V163c0,2.123,1.717,3.84,3.84,3.84h53.765c2.122,0,3.842-1.717,3.842-3.84v-38.402
				H209.163z"/>
		</g>
	</g>
	<g id="Container_5_">
		<g>
			<path fill="#FFFFFF" d="M213.003,111.508v48.917c0,1.422,0.859,2.576,1.92,2.576h49.926c1.062,0,1.919-1.154,1.919-2.576v-48.917
				H213.003z"/>
		</g>
	</g>
	<g id="Header_2_">
		<g>
			<path fill-rule="evenodd" clip-rule="evenodd" fill="#FF643A" d="M266.768,105.395h-53.765c-2.123,0-3.84,1.72-3.84,3.843v15.36
				h61.446v-15.36C270.609,107.115,268.89,105.395,266.768,105.395z M227.249,118.156c-1.746,0-3.161-1.415-3.161-3.163
				c0-1.741,1.415-3.156,3.161-3.156s3.158,1.415,3.158,3.156C230.407,116.741,228.995,118.156,227.249,118.156z M252.524,118.156
				c-1.747,0-3.16-1.415-3.16-3.163c0-1.741,1.413-3.156,3.16-3.156c1.744,0,3.158,1.415,3.158,3.156
				C255.683,116.741,254.269,118.156,252.524,118.156z"/>
		</g>
	</g>
	<g>
		<text transform="matrix(1.139 0 0 1 222.2705 154.04)" fill="#5A5A5A" font-family="'GloberxBold'" font-size="31.866">21</text>
	</g>
	<g opacity="0.1">
		<path fill="#1D1D1B" d="M303.943,165.896c0.536,1.621,0.838,3.348,0.838,5.148v18.406c0,9.043-7.332,16.375-16.379,16.375
			c-3.312,0-6.392-0.99-8.969-2.682c2.158,6.52,8.295,11.23,15.541,11.23c9.047,0,16.379-7.332,16.379-16.375v-18.406
			C311.354,173.861,308.402,168.824,303.943,165.896z"/>
	</g>
	<path fill="#C6C6C5" d="M285.977,50.638c0,0-13.385-12.9,1.475-29.834C287.451,20.804,305.185,31.732,285.977,50.638z"/>
	<path fill="#4E4E4E" d="M286.742,52.127c0,0,1.141-29.477,25.406-28.723C312.148,23.405,315.672,56.155,286.742,52.127z"/>
	<path fill="#4E4E4E" d="M288.963,52.127c0,0-1.141-29.477-25.406-28.723C263.557,23.405,260.033,56.155,288.963,52.127z"/>
	<g>
		<polygon fill="#DCDBDD" points="303.273,92.329 272.081,92.329 268.1,51.559 307.255,51.559 		"/>
		<rect x="267.43" y="51.215" fill="#C6C6C5" width="40.495" height="7.8"/>
	</g>
	<polygon fill="#FF643A" points="149.101,107.89 166.148,101.473 172.227,104.681 185.817,90.946 190.167,93.937 190.167,83.16 
		177.565,84.895 181.747,87.836 171.631,98.063 165.312,96.46 149.101,103.596 	"/>
	<polygon fill="#FFFFFF" points="165.79,104.932 167.996,105.86 167.996,122.359 159.293,122.359 159.293,107.24 	"/>
	<polygon fill="#FFFFFF" points="179.082,102.575 179.082,122.359 170.381,122.359 170.381,106.838 173.271,108.217 	"/>
	<polygon fill="#FFFFFF" points="186.234,94.506 190.167,98.215 190.167,122.359 181.466,122.359 181.466,99.458 	"/>
	<polygon fill="#FFFFFF" points="149.101,110.499 156.89,107.89 156.89,122.359 149.101,122.359 	"/>
	<rect x="101.424" y="21.3" opacity="0.1" fill="#1D1D1B" width="58.27" height="60.518"/>
	<rect x="106.432" y="14.552" fill="#FFFFFF" width="58.27" height="60.518"/>
	<polygon fill="#FF643A" points="113.006,20.08 113.006,51.752 125.407,39.803 137.062,51.752 146.323,44.286 158.278,51.752 
		158.278,20.08 	"/>
	<circle fill="#4E4E4E" cx="146.201" cy="31.014" r="4.9"/>
	<g>
		<path fill="#C6C6C5" d="M81.985,85.367v24.031c0,0.803-0.65,1.453-1.456,1.453H22.063c-0.804,0-1.458-0.65-1.458-1.453V85.367
			c0-0.803,0.653-1.454,1.458-1.454h58.466C81.335,83.913,81.985,84.564,81.985,85.367z"/>
		<path fill="#DCDBDD" d="M68.845,97.381c0,9.654-7.872,17.508-17.547,17.508s-17.549-7.854-17.549-17.508
			c0-9.652,7.874-17.508,17.549-17.508S68.845,87.729,68.845,97.381z"/>
		<path fill="#FFFFFF" d="M36.664,97.381c0,8.052,6.563,14.602,14.634,14.602c8.068,0,14.634-6.55,14.634-14.602
			c0-8.051-6.565-14.599-14.634-14.599C43.227,82.783,36.664,89.331,36.664,97.381z"/>
		<g>
			<path fill="#939598" d="M52.755,92.149v5.232c0,0.803-0.653,1.455-1.458,1.455H43.72c-0.805,0-1.456-0.652-1.456-1.455
				c0-0.802,0.651-1.452,1.456-1.452h6.119v-3.78c0-0.803,0.654-1.453,1.458-1.453C52.102,90.696,52.755,91.346,52.755,92.149z"/>
		</g>
		<g>
			<path fill="#4E4E4E" d="M52.755,92.149v5.232c0,0.803-0.653,1.455-1.458,1.455H43.72c-0.805,0-1.456-0.652-1.456-1.455
				c0-0.802,0.651-1.452,1.456-1.452h6.119v-3.78c0-0.803,0.654-1.453,1.458-1.453C52.102,90.696,52.755,91.346,52.755,92.149z"/>
		</g>
	</g>
	<path fill="#C6C6C5" d="M229.353,51.215h-40.381c-0.844,0-1.53-0.685-1.53-1.528V22.459c0-0.845,0.687-1.53,1.53-1.53h40.381
		c0.844,0,1.53,0.686,1.53,1.53v27.228C230.883,50.531,230.196,51.215,229.353,51.215z"/>
	<path fill="#DCDBDD" d="M216.086,24.03c-0.844,0-1.528-0.685-1.528-1.528v-4.673h-10.791v4.673c0,0.844-0.685,1.528-1.529,1.528
		c-0.844,0-1.529-0.685-1.529-1.528v-6.203c0-0.844,0.686-1.528,1.529-1.528h13.849c0.845,0,1.53,0.685,1.53,1.528v6.203
		C217.616,23.345,216.931,24.03,216.086,24.03z"/>
	<path fill="#DCDBDD" d="M229.353,37.603h-40.381c-0.844,0-1.53-0.687-1.53-1.53V22.459c0-0.845,0.687-1.53,1.53-1.53h40.381
		c0.844,0,1.53,0.686,1.53,1.53v13.613C230.883,36.917,230.196,37.603,229.353,37.603z"/>
	<path fill="#4E4E4E" d="M199.713,40.548c-0.845,0-1.53-0.684-1.53-1.528v-6.595c0-0.845,0.686-1.529,1.53-1.529
		s1.528,0.685,1.528,1.529v6.595C201.241,39.865,200.558,40.548,199.713,40.548z"/>
	<path fill="#4E4E4E" d="M218.845,40.548c-0.844,0-1.527-0.684-1.527-1.528v-6.595c0-0.845,0.684-1.529,1.527-1.529
		c0.846,0,1.531,0.685,1.531,1.529v6.595C220.376,39.865,219.69,40.548,218.845,40.548z"/>
	<path fill="#4E4E4E" d="M294.331,134.059c-0.287,0-0.552-0.164-0.678-0.426l-9.612-19.892c-0.141-0.29-0.08-0.638,0.149-0.864
		s0.577-0.281,0.866-0.138l19.893,9.947c0.274,0.137,0.438,0.426,0.414,0.732c-0.023,0.305-0.23,0.566-0.521,0.66l-4.182,1.332
		l4.578,4.578c0.294,0.295,0.294,0.771,0,1.066l-2.753,2.754c-0.282,0.281-0.782,0.281-1.065,0l-4.846-4.848l-1.527,4.584
		c-0.098,0.291-0.361,0.494-0.667,0.514C294.363,134.059,294.348,134.059,294.331,134.059z"/>
	<polygon fill="#C6C6C5" points="257.562,86.186 263.416,81.449 261.676,79.708 259.936,77.968 255.198,83.822 251.667,84.268 
		254.392,86.993 257.117,89.717 	"/>
	<g>
		<line fill="#6E6058" x1="254.392" y1="86.993" x2="251.526" y2="89.858"/>
		<polygon fill="#6E6058" points="254.923,87.523 251.526,89.858 253.862,86.462 		"/>
	</g>
	<polygon fill="#FF643A" points="254.631,68.989 255.419,61.5 252.959,61.5 250.498,61.5 251.287,68.989 249.106,71.801 
		252.959,71.801 256.812,71.8 	"/>
	<g>
		<line fill="#6E6058" x1="252.959" y1="71.801" x2="252.959" y2="75.853"/>
		<polygon fill="#6E6058" points="253.709,71.801 252.959,75.853 252.209,71.801 		"/>
	</g>
	<polygon fill="#C6C6C5" points="25.063,158.371 30.916,153.635 29.176,151.895 27.436,150.154 22.698,156.008 19.167,156.453 
		21.892,159.178 24.617,161.902 	"/>
	<g>
		<line fill="#6E6058" x1="21.892" y1="159.178" x2="19.027" y2="162.043"/>
		<polygon fill="#6E6058" points="22.422,159.709 19.027,162.043 21.362,158.648 		"/>
	</g>
	<polygon fill="#FF643A" points="22.131,141.174 22.919,133.686 20.459,133.686 17.998,133.686 18.787,141.174 16.606,143.986 
		20.459,143.986 24.312,143.986 	"/>
	<g>
		<line fill="#6E6058" x1="20.459" y1="143.986" x2="20.459" y2="148.039"/>
		<polygon fill="#6E6058" points="21.209,143.986 20.459,148.039 19.709,143.986 		"/>
	</g>
	<polygon fill="#FF643A" points="311.96,147.881 306.107,152.617 307.846,154.357 309.586,156.098 314.324,150.244 317.855,149.799 
		315.131,147.074 312.405,144.35 	"/>
	<g>
		<line fill="#6E6058" x1="315.131" y1="147.074" x2="317.996" y2="144.209"/>
		<polygon fill="#6E6058" points="314.601,146.543 317.996,144.209 315.661,147.604 		"/>
	</g>
	<polygon fill="#4E4E4E" points="317.576,105.245 318.365,97.756 315.904,97.755 313.443,97.755 314.232,105.245 312.051,108.057 
		315.904,108.057 319.758,108.056 	"/>
	<g>
		<line fill="#6E6058" x1="315.904" y1="108.057" x2="315.904" y2="112.109"/>
		<polygon fill="#6E6058" points="316.654,108.057 315.904,112.109 315.154,108.057 		"/>
	</g>
	<polygon fill="#4E4E4E" points="85.278,63.772 91.13,59.035 89.392,57.294 87.652,55.554 82.914,61.409 79.382,61.854 
		82.107,64.579 84.833,67.303 	"/>
	<g>
		<line fill="#6E6058" x1="82.107" y1="64.579" x2="79.242" y2="67.444"/>
		<polygon fill="#6E6058" points="82.638,65.109 79.242,67.444 81.577,64.048 		"/>
	</g>
</g>
<g id="text">
</g>
<g id="Layer_1">
</g>
<g id="Layer_3">
</g>
<g id="Layer_4">
</g>
<g id="Layer_5">
</g>
<g id="Layer_6">
</g>
<g id="Layer_7">
</g>
</svg>
