<?xml version="1.0" encoding="utf-8"?>
<!-- Generator: Adobe Illustrator 23.1.0, SVG Export Plug-In . SVG Version: 6.00 Build 0)  -->
<svg version="1.1"
	 id="svg2" sodipodi:docname="Ai.ai" xmlns:cc="http://creativecommons.org/ns#" xmlns:dc="http://purl.org/dc/elements/1.1/" xmlns:inkscape="http://www.inkscape.org/namespaces/inkscape" xmlns:rdf="http://www.w3.org/1999/02/22-rdf-syntax-ns#" xmlns:sodipodi="http://sodipodi.sourceforge.net/DTD/sodipodi-0.dtd" xmlns:svg="http://www.w3.org/2000/svg"
	 xmlns="http://www.w3.org/2000/svg" xmlns:xlink="http://www.w3.org/1999/xlink" x="0px" y="0px" viewBox="0 0 2666.7 2666.7"
	 style="enable-background:new 0 0 2666.7 2666.7;" xml:space="preserve">
<style type="text/css">
	.st0{fill:#6B2074;}
	.st1{fill:url(#SVGID_1_);}
	.st2{fill:url(#SVGID_2_);}
</style>
<sodipodi:namedview  bordercolor="#666666" borderopacity="1" gridtolerance="10" guidetolerance="10" id="namedview4" inkscape:pageopacity="0" inkscape:pageshadow="2" inkscape:window-height="480" inkscape:window-width="640" objecttolerance="10" pagecolor="#ffffff">
	</sodipodi:namedview>
<g>
	<g>
		<g>
			<path class="st0" d="M28.3,2163.2H0v-29.9h28.3v-15.6c0-48.7,23.9-70.6,79.8-70.6v30.3c-32.7,0-43.5,12-43.5,40.3v15.6h45.9v29.9
				H64.6v188.7H28.3V2163.2z"/>
			<path class="st0" d="M248.1,2355.5c-61.8,0-108.9-43.9-108.9-113.3c0-69,48.7-112.5,110.5-112.5c62.2,0,110.5,43.5,110.5,112.5
				C360.2,2311.6,310.3,2355.5,248.1,2355.5z M248.1,2323.6c37.9,0,75-25.9,75-81.4c0-55-36.3-81-73.8-81c-38.3,0-73,25.9-73,81
				C176.3,2297.6,210.2,2323.6,248.1,2323.6z"/>
			<path class="st0" d="M408,2056.7h36.3v295.1H408V2056.7z"/>
			<path class="st0" d="M506.1,2056.7h36.3v295.1h-36.3V2056.7z"/>
			<path class="st0" d="M699.6,2355.5c-61.8,0-108.9-43.9-108.9-113.3c0-69,48.7-112.5,110.5-112.5c62.2,0,110.5,43.5,110.5,112.5
				C811.6,2311.6,761.8,2355.5,699.6,2355.5z M699.6,2323.6c37.9,0,75-25.9,75-81.4c0-55-36.3-81-73.8-81c-38.3,0-73,25.9-73,81
				C627.8,2297.6,661.7,2323.6,699.6,2323.6z"/>
			<path class="st0" d="M833.6,2133.3h37.1l50.3,183.5l54.2-183.5h37.1l53,183.9l49.5-183.9h35.9l-68.2,218.6H1045l-52.6-173.5
				l-52.6,173.5h-37.5L833.6,2133.3z"/>
			<path class="st0" d="M1502,2228.2c0-44.7-23.9-67.4-59.8-67.4c-36.7,0-61.8,23.5-61.8,70.6v120.5h-35.9v-123.6
				c0-44.7-23.9-67.4-59.8-67.4c-36.7,0-61.8,23.5-61.8,70.6v120.5h-36.3v-218.6h36.3v31.5c14.4-23.1,40.3-35.5,69-35.5
				c35.9,0,65.8,16,80.2,48.7c12.8-31.5,43.9-48.7,77.4-48.7c49.9,0,88.5,31.1,88.5,93.7v128.8H1502V2228.2z"/>
			<path class="st0" d="M1748.1,2133.3h37.5L1654,2454.8h-37.5l43.1-105.3l-88.1-216.2h40.3l68.6,177.1L1748.1,2133.3z"/>
			<path class="st0" d="M1833.5,2354.3c-14,0-24.7-10.8-24.7-24.7c0-14,10.8-24.7,24.7-24.7c13.2,0,23.9,10.8,23.9,24.7
				C1857.4,2343.5,1846.6,2354.3,1833.5,2354.3z"/>
			<path class="st0" d="M1995.8,2129.7c40.7,0,68.6,20.7,81.4,43.5v-39.9h36.7v218.6h-36.7v-40.7c-13.2,23.5-41.5,44.3-81.8,44.3
				c-58.2,0-103.3-45.9-103.3-113.7C1892.1,2173.6,1937.2,2129.7,1995.8,2129.7z M2003,2161.2c-39.9,0-73.8,29.1-73.8,80.6
				s33.9,81.8,73.8,81.8c39.9,0,74.2-29.9,74.2-81.4C2077.2,2191.5,2042.9,2161.2,2003,2161.2z"/>
			<path class="st0" d="M2293.3,2129.7c58.6,0,103.7,43.9,103.7,112.1c0,67.8-45.1,113.7-103.7,113.7c-39.9,0-68.2-21.5-81.8-43.9
				v144h-36.3v-322.3h36.3v40.3C2224.7,2150.5,2253.5,2129.7,2293.3,2129.7z M2285.8,2161.2c-39.5,0-74.2,30.3-74.2,81
				c0,51.4,34.7,81.4,74.2,81.4c40.3,0,74.2-30.3,74.2-81.8S2326,2161.2,2285.8,2161.2z"/>
			<path class="st0" d="M2563,2129.7c58.6,0,103.7,43.9,103.7,112.1c0,67.8-45.1,113.7-103.7,113.7c-39.9,0-68.2-21.5-81.8-43.9v144
				h-36.3v-322.3h36.3v40.3C2494.4,2150.5,2523.1,2129.7,2563,2129.7z M2555.4,2161.2c-39.5,0-74.2,30.3-74.2,81
				c0,51.4,34.7,81.4,74.2,81.4c40.3,0,74.2-30.3,74.2-81.8S2595.7,2161.2,2555.4,2161.2z"/>
		</g>
	</g>
	<g>
		<g>
			<g>
				<linearGradient id="SVGID_1_" gradientUnits="userSpaceOnUse" x1="1989.5111" y1="-362.8767" x2="1957.9387" y2="1799.8348">
					<stop  offset="0" style="stop-color:#B630AD"/>
					<stop  offset="1" style="stop-color:#4C1B5B"/>
				</linearGradient>
				<path class="st1" d="M2549.6,1819.1l-167.2-128.5l-19.4-841.1L1968.4,1325l-403.6-474.3l-1.5,113.5l405.9,481.1l321.4-387
					l15.4,671.2l321.1,246.8V442l-77.4,84.7V1819.1z M1968.2,936.3L1309.4,216v1760.3l321-246.8l7.5-556.4l-76.2-92.6l-8.2,610.5
					l-166.7,128.1V415.3l581.4,635.7l658.9-720.3V216L1968.2,936.3z"/>
			</g>
		</g>
		<g>
			<g>
				<linearGradient id="SVGID_2_" gradientUnits="userSpaceOnUse" x1="663.79" y1="-382.2303" x2="632.2176" y2="1780.4812">
					<stop  offset="0" style="stop-color:#B630AD"/>
					<stop  offset="1" style="stop-color:#4C1B5B"/>
				</linearGradient>
				<path class="st2" d="M396.5,670h518l356.2-458.9H39.6v837.3h79.3v-758h989.8L875.7,590.7H317.2v300.3h597.1l-207,232.3
					l-588.4,1.7v-0.6H39.6v852.9l430.6-388.9l5.7-312.2h-79.3l-5.7,277l-272,245.6v-594.5l624-1.8l348.2-390.9H396.5V670z"/>
			</g>
		</g>
	</g>
</g>
</svg>
